<?xml version="1.0" encoding="utf-8"?>
<!-- Generator: Adobe Illustrator 25.2.3, SVG Export Plug-In . SVG Version: 6.00 Build 0)  -->
<svg version="1.1" id="Layer_1" xmlns="http://www.w3.org/2000/svg" xmlns:xlink="http://www.w3.org/1999/xlink" x="0px" y="0px"
	 viewBox="0 0 536.3 287.9" style="enable-background:new 0 0 536.3 287.9;" xml:space="preserve">
<style type="text/css">
	.st0{fill:#1D1D1B;}
	.st1{fill:#E9511E;}
</style>
<g id="LOGO">
	<path class="st0" d="M152.7,70.9c-12.6-13.2-29.6-19.7-51.1-19.7c-22.5,0-40.1,8.3-52.8,24.8H49l-0.3-21.2H0v179.4h45.9v-97.2
		c0-15.1,3.9-26.5,11.8-34.3S75.5,91,87.2,91c11.2,0,20.4,3.8,27.6,11.3c7.2,7.5,10.8,18.4,10.8,32.5v99.4h45.9V125.4
		C171.5,102.2,165.3,84,152.7,70.9z"/>
	<path class="st0" d="M512.5,88V51.8h-47V3h-41.6v21.5c0,9.8-2.3,16.8-7,21s-12.5,6.3-23.5,6.3h-12.2V88h38.4v94.4
		c0,34.9,18.7,52.4,56,52.4c10.6-0.1,21.2-1.5,31.6-3.9v-34.8c-5.7,1.6-11.6,2.5-17.6,2.5c-6.7,0-12-1.3-15.8-3.8s-6.2-5.2-7-8.1
		c-0.9-3.4-1.3-6.9-1.2-10.4V88H512.5z"/>
	<path class="st1" d="M299.1,207.6h0.5c-13.7,25.7-45.6,35.4-71.2,21.7c-25.7-13.7-35.4-45.6-21.7-71.2s45.6-35.4,71.2-21.7
		c9,4.8,16.4,12.1,21.3,21.1h-0.2c-6.6-0.1-13,2.6-17.6,7.4c-4.8,4.7-7.5,11.2-7.4,17.9C274.3,196.4,285.4,207.4,299.1,207.6
		L299.1,207.6z"/>
	<path class="st0" d="M377.9,200v34.5h-19.4c-12.4,0-33.2-6.1-39.2-23.6c-0.7-1.9-1.2-3.9-1.7-5.9l0,0c-0.9-4.3-1.6-8.6-2.1-13l0,0
		c-0.1-0.6-0.1-1.1-0.2-1.7c-0.4-3.9-0.6-7.7-0.7-11.3V179c0-0.7,0-1.4-0.1-2.1v-0.1c-0.2-8.6,0.1-14.9,0.1-14.9v-44.4
		c0-9.6-2.8-16.9-8.2-21.9c-5.5-5-12.8-7.5-21.9-7.5c-18.4,0-29.2,9-32.3,26.9h-45.9c1.9-19.2,9.8-34.5,23.7-46.1
		s32.1-17.4,54.5-17.4c22.5,0,40.8,5.8,54.9,17.4c14.1,11.6,21.2,28.9,21.2,51.9v65.7c0,9.1,4.3,13.6,12.9,13.6L377.9,200z"/>
	<circle class="st1" cx="253.2" cy="182.8" r="52.7"/>
</g>
</svg>
