<svg id="Layer_1" data-name="Layer 1" xmlns="http://www.w3.org/2000/svg" viewBox="0 0 536.34 239.89"><defs><style>.cls-1{fill:#1d1d1b;}.cls-2{fill:#e9511e;}</style></defs><g id="LOGO"><path class="cls-1" d="M152.7,70.87q-18.84-19.74-51.14-19.74-33.74,0-52.75,24.76H49l-.32-21.16H0V234.15H45.94V136.91q0-22.62,11.84-34.28T87.21,91q16.86,0,27.63,11.3t10.76,32.49v99.39h45.94V125.41Q171.54,90.61,152.7,70.87Z"/><path class="cls-1" d="M512.53,88V51.79h-47V3H423.89V24.52q0,14.72-7,21T393.38,51.8h-12.2V88h38.4v94.38q0,52.4,56,52.39a142.42,142.42,0,0,0,31.58-4V196.05a67.39,67.39,0,0,1-17.58,2.52q-10.05,0-15.79-3.77t-7-8.08a37.6,37.6,0,0,1-1.25-10.4V88Z"/><path class="cls-2" d="M299.11,207.57h.55a52.65,52.65,0,1,1-.35-50.19h-.2a24,24,0,0,0-17.56,7.38,24.38,24.38,0,0,0-7.37,17.88,25.2,25.2,0,0,0,24.93,24.94Z"/><path class="cls-1" d="M377.85,200v34.46H358.47c-12.38,0-33.16-6.11-39.2-23.59A57.61,57.61,0,0,1,317.6,205h0a109.84,109.84,0,0,1-2.05-13h0c-.06-.56-.12-1.12-.16-1.68-.37-3.88-.58-7.72-.71-11.27V179a20.45,20.45,0,0,0-.07-2.07v-.14c-.21-8.57.08-14.9.08-14.9v-44.4q0-14.34-8.25-21.88t-21.9-7.54q-27.63,0-32.3,26.92H206.31Q209.18,86.27,230,68.85t54.54-17.4q33.73,0,54.91,17.4t21.17,51.86v65.67q0,13.63,12.93,13.63Z"/><circle class="cls-2" cx="253.18" cy="182.79" r="52.66"/></g></svg>